<svg width="88" height="92" viewBox="0 0 88 92" fill="none" xmlns="http://www.w3.org/2000/svg">
<path d="M75.1127 14.2077C66.8611 5.66736 55.6695 0.869446 44 0.869446C32.3305 0.869446 21.1389 5.66736 12.8873 14.2077C4.6357 22.7481 0 34.3313 0 46.4091C0 58.487 4.6357 70.0702 12.8873 78.6106C21.1389 87.1509 32.3305 91.9489 44 91.9489C55.6695 91.9489 66.8611 87.1509 75.1127 78.6106C83.3643 70.0702 88 58.487 88 46.4091C88 34.3313 83.3643 22.7481 75.1127 14.2077ZM44 85.845C22.9906 85.845 5.89744 68.1541 5.89744 46.4091C5.89744 24.6642 22.9902 6.97326 44 6.97326C65.0098 6.97326 82.1026 24.6642 82.1026 46.4091C82.1026 68.1541 65.0098 85.845 44 85.845Z" fill="#264348"/>
<path d="M31.4115 64.7189L0 34.24L4.93513 28.7914L31.2496 54.3245L82.8976 0.869446L88 6.14998L31.4115 64.7189Z" fill="#264348"/>
</svg>
