<svg width="35" height="24" viewBox="0 0 35 24" fill="none" xmlns="http://www.w3.org/2000/svg">
<path d="M34.1545 3.70175C33.7466 2.25349 32.6172 1.11764 31.1625 0.716115C28.4839 3.4235e-05 17.7158 3.44081e-05 17.7158 3.44081e-05C17.7158 3.44081e-05 6.96817 -0.0171431 4.26166 0.716115C2.81447 1.11871 1.6797 2.25349 1.27603 3.70175C0.768223 6.44691 0.51593 9.22534 0.52774 12.0167C0.522372 14.7897 0.773591 17.5639 1.27603 20.2918C1.6797 21.7401 2.81447 22.876 4.26166 23.2839C6.94026 24 17.7158 24 17.7158 24C17.7158 24 28.457 24 31.1625 23.2839C32.6172 22.876 33.7466 21.7412 34.1545 20.2918C34.6473 17.5639 34.8878 14.7897 34.8706 12.0167C34.8878 9.22534 34.6527 6.44691 34.1545 3.70175V3.70175ZM14.2761 17.1559V6.85487L23.2394 12.0167L14.2761 17.1559Z" fill="#212427" fill-opacity="0.8"/>
</svg>
