<svg width="133" height="41" viewBox="0 0 133 41" fill="none" xmlns="http://www.w3.org/2000/svg">
<path d="M96.49 1.83522C94.3665 1.04354 91.0348 0.181763 86.9115 0.181763C76.3682 0.181763 68.9174 5.50911 68.872 13.1332C68.7854 18.7368 74.154 21.8953 78.2113 23.7838C82.38 25.7176 83.7737 26.9216 83.7531 28.6369C83.7324 31.28 80.4214 32.4593 77.3743 32.4593C73.1397 32.4593 70.843 31.882 67.3011 30.3976L65.9857 29.775L64.4848 38.5824C67.0619 39.6339 71.68 40.5575 76.4466 40.6441C87.6785 40.6441 95.0014 35.3621 95.0839 27.2185C95.1705 22.7529 92.2965 19.3635 86.1734 16.5679C82.479 14.766 80.1658 13.5373 80.1658 11.69C80.1658 10.0572 82.1409 8.34185 86.2642 8.34185C89.8061 8.27588 92.3007 9.05106 94.251 9.82213L95.2612 10.2716L96.7415 1.78987L96.49 1.83522ZM123.898 0.911594H115.651C113.074 0.911594 111.161 1.60019 110.023 4.15666L94.1727 40.0833H105.384L107.644 34.1993L121.321 34.2199C121.663 35.593 122.628 40.0792 122.628 40.0792H132.528L123.898 0.911594ZM53.69 0.589973H64.3653L57.6855 39.7782H47.0103L53.69 0.569356V0.589973ZM26.5463 22.1715L27.639 27.6267L38.0957 0.911594H49.4142L32.5746 40.0173H21.3056L12.0693 6.9028C11.8756 6.32554 11.6405 5.93382 11.0591 5.5957C7.94604 3.96286 4.44535 2.63102 0.58181 1.7074L0.709633 0.886855H17.9327C20.2541 0.973446 22.1426 1.7074 22.7858 4.19789L26.5463 22.1921V22.1715ZM110.687 26.1876L114.962 15.2155C114.896 15.3185 115.841 12.96 116.377 11.4756L117.107 14.8443L119.58 26.1629H110.687V26.1876Z" fill="#212427" fill-opacity="0.8"/>
</svg>
